<?xml version="1.0" encoding="UTF-8" standalone="no"?>
<svg width="87px" height="30px" viewBox="0 0 87 30" version="1.1" xmlns="http://www.w3.org/2000/svg" xmlns:xlink="http://www.w3.org/1999/xlink">
    <!-- Generator: Sketch 3.7.2 (28276) - http://www.bohemiancoding.com/sketch -->
    <title>MYOB LOGO</title>
    <desc>Created with Sketch.</desc>
    <defs></defs>
    <g id="Page-1" stroke="none" stroke-width="1" fill="none" fill-rule="evenodd">
        <g id="MYOB-NAV-UPDATES" transform="translate(-150.000000, -137.000000)" fill="#5C247B">
            <g id="MAIN-NAVIGATION" transform="translate(0.000000, 137.000000)">
                <g id="MYOB-LOGO" transform="translate(150.000000, 0.000000)">
                    <path d="M54.6225305,10.3544828 C54.6225305,10.3544828 51.4750183,10.0834483 51.3922344,15.2603448 C51.3139347,20.0872414 54.5849328,19.7362069 54.5849328,19.7362069 C54.5849328,19.7362069 57.5441117,20.0872414 57.5834341,15.1037931 C57.6217216,10.1217241 54.6225305,10.3544828 54.6225305,10.3544828" id="Fill-1"></path>
                    <path d="M71.0251221,16.4624138 L71.0251221,19.5455172 C71.0251221,19.5455172 74.6458822,20.1482759 74.7127991,18.0037931 C74.7807509,15.8582759 71.0251221,16.4624138 71.0251221,16.4624138" id="Fill-2"></path>
                    <path d="M71.0251221,10.497931 L71.0251221,13.5810345 C71.0251221,13.5810345 74.3778694,14.1844828 74.4444414,12.0393103 C74.5123932,9.89413793 71.0251221,10.497931 71.0251221,10.497931 Z" id="Fill-3"></path>
                    <path d="M82.4855159,3.68241379 L82.1799054,3.68241379 L82.1799054,4.30068966 L82.4934493,4.30068966 C82.9156471,4.30068966 83.0005006,4.1862069 83.0005006,4.00137931 C83.0005006,3.81 82.9128877,3.68241379 82.4855159,3.68241379" id="Fill-4"></path>
                    <path d="M82.4986233,2.93965517 C82.0833242,2.93965517 81.7170055,3.08965517 81.4400244,3.37310345 C81.144072,3.66758621 80.9812637,4.05413793 80.9812637,4.46241379 C80.9812637,4.85862069 81.1406227,5.23793103 81.4296764,5.53137931 C81.7139011,5.82034483 82.0916026,5.97965517 82.4934493,5.97965517 C82.9080586,5.97965517 83.2847253,5.82448276 83.5824023,5.53103448 C83.8690415,5.24931034 84.0266758,4.87310345 84.0266758,4.47206897 C84.0266758,4.05551724 83.8704212,3.67068966 83.5879212,3.38827586 C83.2954182,3.09482759 82.9190965,2.93965517 82.4986233,2.93965517 L82.4986233,2.93965517 Z M82.967732,5.49068966 L82.541395,4.60862069 L82.1799054,4.60862069 L82.1799054,5.49068966 L81.7521886,5.49068966 L81.7521886,3.37344828 L82.5472589,3.37344828 C83.1470971,3.37344828 83.4385653,3.57068966 83.4385653,3.97689655 C83.4385653,4.26413793 83.265754,4.47827586 82.9835989,4.54758621 L83.4447741,5.49068966 L82.967732,5.49068966 L82.967732,5.49068966 Z" id="Fill-5"></path>
                    <path d="M15.0514896,0.294827586 C6.61650183,0.294827586 0.00620879121,6.57758621 0.00620879121,14.3217241 L0.00620879121,29.9434483 L71.6915324,29.9434483 C79.4418284,29.9434483 86.6667918,24.1865517 86.6667918,15.9165517 L86.6667918,0.295862069 L15.0514896,0.294827586 L15.0514896,0.294827586 Z M26.2317979,22.9410345 L22.8069597,22.9386207 L22.1550366,11.2789655 L19.5242338,22.9410345 L13.6510623,22.9410345 L11.8363706,11.747931 L10.4349084,22.9410345 L6.23121184,22.9410345 L7.73132479,7.32344828 L16.7761538,7.32344828 L17.6971245,17.3772414 L19.862268,7.32344828 L27.7008669,7.32344828 L28.9388309,22.9410345 L26.2317979,22.9410345 L26.2317979,22.9410345 Z M40.4730403,22.9410345 L34.4098107,22.9410345 L34.4098107,17.0427586 L28.9053724,7.32344828 L35.4797924,7.32034483 L38.6907723,13.4089655 L41.8858852,7.32344828 L46.4200275,7.32344828 L40.4954609,17.1765517 L40.4730403,22.9410345 L40.4730403,22.9410345 Z M54.9198626,23.1644828 L54.8450122,23.1644828 C47.9901618,23.6344828 43.5801954,17.9368966 45.5911538,12.3068966 C47.6024573,6.67586207 54.8450122,7.01206897 54.8450122,7.01206897 L54.9198626,7.01206897 C54.9198626,7.01206897 61.2811142,6.74310345 63.1575488,12.037931 C65.0219109,17.2968966 61.0482845,23.1644828 54.9198626,23.1644828 L54.9198626,23.1644828 Z M65.2588797,22.7631034 L65.2588797,7.34724138 C65.2588797,7.34724138 78.4673932,6.0062069 79.8750641,9.89413793 C80.4942186,11.6044828 80.024765,12.7437931 79.3035104,13.4831034 C79.0458455,13.7472414 78.7547222,13.9610345 78.4711874,14.1313793 C78.3052747,14.2310345 78.1403968,14.3158621 77.9862118,14.3872414 C77.4660531,14.6286207 77.0593773,14.7206897 77.0593773,14.7206897 C77.0593773,14.7206897 78.0169109,15.0427586 78.1966209,15.1324138 C78.375641,15.2210345 78.5646642,15.3255172 78.7523077,15.45 C78.9344322,15.5717241 79.115177,15.7103448 79.2869536,15.8713793 C79.5073657,16.0768966 79.7108761,16.3175862 79.8750641,16.5962069 C80.7463645,18.0693103 81.0819841,20.2831034 77.3284249,22.0251724 C73.5738309,23.7672414 65.2588797,22.7631034 65.2588797,22.7631034 Z M83.7924664,5.74034483 C83.4333913,6.09 82.9739408,6.28275862 82.4986233,6.28275862 C82.0198565,6.28275862 81.5642002,6.09 81.2144383,5.74 C80.8712302,5.39586207 80.681862,4.94206897 80.681862,4.46241379 C80.681862,3.97827586 80.8764042,3.51689655 81.2292705,3.16310345 C81.5666148,2.82068966 82.0053694,2.63965517 82.4986233,2.63965517 C82.9967063,2.63965517 83.4461538,2.82551724 83.7972955,3.17793103 C84.1346398,3.51448276 84.3205586,3.97103448 84.3205586,4.46241379 C84.3205586,4.96413793 84.1380891,5.4062069 83.7924664,5.74034483 L83.7924664,5.74034483 Z" id="Fill-6"></path>
                </g>
            </g>
        </g>
    </g>
</svg>